<svg width="38" height="37" viewBox="0 0 38 37" fill="none" xmlns="http://www.w3.org/2000/svg">
    <path d="M3.67445 13.0708C4.1034 13.2874 4.6008 13.3249 5.05736 13.175C5.51392 13.025 5.89228 12.7 6.10932 12.2713C7.27238 9.96162 9.03179 8.00492 11.2053 6.60384C13.3788 5.20277 15.8874 4.40827 18.4712 4.30264C21.055 4.19701 23.6201 4.78409 25.9007 6.00308C28.1813 7.22206 30.0946 9.02862 31.4423 11.2356C32.79 13.4426 33.5231 15.9698 33.5658 18.5554C33.6084 21.141 32.959 23.691 31.6849 25.9413C30.4107 28.1915 28.5581 30.0602 26.3189 31.3537C24.0797 32.6473 21.5354 33.3187 18.9495 33.2983C16.2461 33.2919 13.5992 32.5233 11.3128 31.0809C9.0263 29.6384 7.19285 27.5805 6.02284 25.1434C5.80937 24.7092 5.43216 24.3776 4.97419 24.2215C4.51622 24.0654 4.01501 24.0976 3.5808 24.3111C3.14661 24.5246 2.81499 24.9018 2.6589 25.3597C2.50282 25.8177 2.53506 26.3189 2.74853 26.7531C4.54306 30.4262 7.52627 33.385 11.214 35.1493C14.9017 36.9136 19.0774 37.3797 23.0634 36.4722C27.0494 35.5646 30.6117 33.3366 33.1721 30.1497C35.7325 26.9629 37.1407 23.0042 37.1682 18.9163C37.1957 14.8284 35.8408 10.8511 33.3234 7.63014C30.806 4.40914 27.274 2.13345 23.3006 1.17243C19.3271 0.2114 15.1455 0.621446 11.4344 2.33601C7.72335 4.05058 4.70065 6.96903 2.85693 10.6177C2.74744 10.832 2.68173 11.066 2.66363 11.306C2.64553 11.546 2.6754 11.7872 2.7515 12.0156C2.82759 12.2439 2.94839 12.4548 3.10686 12.636C3.26532 12.8172 3.45827 12.965 3.67445 13.0708ZM2.71803 20.4979L20.1044 20.6147L15.9067 24.7384C15.7365 24.9063 15.6011 25.1061 15.5081 25.3263C15.4152 25.5466 15.3665 25.783 15.3649 26.022C15.3633 26.2611 15.4088 26.4981 15.4988 26.7196C15.5888 26.9411 15.7215 27.1426 15.8894 27.3128C16.0573 27.483 16.2571 27.6184 16.4773 27.7114C16.6976 27.8044 16.934 27.853 17.173 27.8546C17.4121 27.8562 17.6491 27.8107 17.8706 27.7207C18.0921 27.6307 18.2937 27.498 18.4638 27.3301L25.7644 20.1269C25.9307 19.9556 26.0614 19.7532 26.1492 19.5312C26.3335 19.091 26.3368 18.596 26.1584 18.1533C26.0737 17.9302 25.9456 17.726 25.7817 17.5525L18.5786 10.2519C18.4112 10.0808 18.2116 9.94461 17.9913 9.85108C17.7709 9.75756 17.5343 9.70858 17.295 9.70697C17.0556 9.70536 16.8183 9.75116 16.5968 9.84171C16.3753 9.93227 16.1738 10.0658 16.0041 10.2346C15.8331 10.402 15.6969 10.6016 15.6033 10.8219C15.5098 11.0422 15.4608 11.2789 15.4592 11.5182C15.4576 11.7575 15.5034 11.9948 15.594 12.2164C15.6845 12.4379 15.8181 12.6393 15.9869 12.809L20.1288 16.9887L2.74239 16.8719C2.26156 16.8687 1.79914 17.0566 1.45685 17.3943C1.11457 17.732 0.920464 18.1919 0.917234 18.6727C0.914003 19.1536 1.10191 19.616 1.43963 19.9583C1.77734 20.3005 2.2372 20.4947 2.71803 20.4979Z" fill="black"/>
</svg>