<svg width="382" height="285" viewBox="0 0 382 285" fill="none" xmlns="http://www.w3.org/2000/svg">
    <path d="M248.997 62.1012H359.232C364.259 62.1012 368.328 66.17 368.328 71.1978V234.065C368.328 239.093 364.259 243.161 359.232 243.161H248.997C243.969 243.161 239.9 239.093 239.9 234.065V71.1978C239.9 66.17 243.969 62.1012 248.997 62.1012Z" fill="url(#paint0_linear_1_1481)"/>
    <path d="M291.283 62.1012V243.161V62.1012Z" fill="url(#paint1_linear_1_1481)"/>
    <path d="M291.283 62.1012V243.161" stroke="#24221C" stroke-width="1.1625" stroke-linecap="round" stroke-linejoin="round"/>
    <path d="M265.592 62.1012V243.161V62.1012Z" fill="url(#paint2_linear_1_1481)"/>
    <path d="M265.592 62.1012V243.161" stroke="#24221C" stroke-width="1.1625" stroke-linecap="round" stroke-linejoin="round"/>
    <path d="M316.946 62.1012V243.161V62.1012Z" fill="url(#paint3_linear_1_1481)"/>
    <path d="M316.946 62.1012V243.161" stroke="#24221C" stroke-width="1.1625" stroke-linecap="round" stroke-linejoin="round"/>
    <path d="M342.637 62.1012V243.161V62.1012Z" fill="url(#paint4_linear_1_1481)"/>
    <path d="M342.637 62.1012V243.161" stroke="#24221C" stroke-width="1.1625" stroke-linecap="round" stroke-linejoin="round"/>
    <path d="M239.901 191.488H368.328H239.901Z" fill="url(#paint5_linear_1_1481)"/>
    <path d="M239.901 191.488H368.328" stroke="#24221C" stroke-width="1.1625" stroke-linecap="round" stroke-linejoin="round"/>
    <path d="M239.901 217.354L368.328 217.47L239.901 217.354Z" fill="url(#paint6_linear_1_1481)"/>
    <path d="M239.901 217.354L368.328 217.47" stroke="#24221C" stroke-width="1.1625" stroke-linecap="round" stroke-linejoin="round"/>
    <path d="M239.901 139.669L368.328 139.727L239.901 139.669Z" fill="url(#paint7_linear_1_1481)"/>
    <path d="M239.901 139.669L368.328 139.727" stroke="#24221C" stroke-width="1.1625" stroke-linecap="round" stroke-linejoin="round"/>
    <path d="M239.988 165.622H368.329H239.988Z" fill="url(#paint8_linear_1_1481)"/>
    <path d="M239.988 165.622H368.329" stroke="#24221C" stroke-width="1.1625" stroke-linecap="round" stroke-linejoin="round"/>
    <path d="M239.901 113.833L368.328 113.862L239.901 113.833Z" fill="url(#paint9_linear_1_1481)"/>
    <path d="M239.901 113.833L368.328 113.862" stroke="#24221C" stroke-width="1.1625" stroke-linecap="round" stroke-linejoin="round"/>
    <path d="M239.901 87.9669H368.328H239.901Z" fill="url(#paint10_linear_1_1481)"/>
    <path d="M239.901 87.9669H368.328" stroke="#24221C" stroke-width="1.1625" stroke-linecap="round" stroke-linejoin="round"/>
    <path d="M234.896 31.4718H328.565C333.592 31.4718 337.661 35.5406 337.661 40.5684V203.435C337.661 208.463 333.592 212.532 328.565 212.532H234.896C229.868 212.532 225.799 208.463 225.799 203.435V40.5684C225.799 35.5406 229.897 31.4718 234.896 31.4718Z" fill="#FF4F32"/>
    <path d="M283.227 28.1587L290.173 16.9406H309.412C314.44 16.9406 318.509 21.0093 318.509 26.0372V56.7563L310.546 66.9283L283.256 59.1976L283.227 28.1587Z" fill="#231F20"/>
    <path d="M292.236 25.2816V51.002L277.211 158.941L224.375 149.757L214.843 91.0503L212.285 31.4719L240.069 24.5841L292.236 25.2816Z" fill="#FFA0DC"/>
    <path d="M212.285 109.185L206.647 122.002V188.904C206.647 193.932 210.716 198.001 215.743 198.001H224.375L244.079 190.735L242.103 98.0254L212.285 109.185Z" fill="#FF4F32"/>
    <path d="M215.743 16.9407C210.716 16.9407 206.647 21.0094 206.647 26.0373V122.002C214.494 111.394 236 118.95 241.522 101.222C247.712 81.3434 203.683 61.8715 217.691 42.5158C229.897 25.6595 260.703 42.8064 279.885 37.8658C299.066 32.9251 290.173 16.9407 290.173 16.9407H215.743Z" fill="white"/>
    <path d="M234.024 152.227V195.618H258.96L239.226 153.535L234.024 152.227Z" fill="#61CCFF"/>
    <path d="M254.6 65.1846V149.757H301.885V97.7347L254.6 65.1846Z" fill="#61CCFF"/>
    <path d="M224.375 198.001H309.441C314.469 198.001 318.538 193.932 318.538 188.904L318.509 56.7855C318.509 56.7855 265.644 40.772 256.635 57.3377C242.888 82.6222 302.437 111.307 292.672 132.319C285.116 148.594 243.237 131.854 235.419 146.851C228.444 160.219 250.183 175.099 248.206 184.341C246.463 192.479 227.281 188.991 224.375 198.001Z" fill="white"/>
    <path d="M274.653 105C278.504 105 281.628 101.876 281.628 98.0254C281.628 94.1746 278.504 91.0504 274.653 91.0504C270.802 91.0504 267.678 94.1746 267.678 98.0254C267.678 101.876 270.802 105 274.653 105Z" fill="#231F20"/>
    <path d="M187.874 284.561H96.9558V256.08H138.486H138.552L138.595 256.03L145.527 248.174H212.726L187.734 255.795L187.475 255.874L187.684 256.046L205.967 271.128L187.874 284.561Z" fill="#2EEFEA" stroke="#816767" stroke-width="0.290626"/>
    <path d="M188.066 284.561L187.893 251.028L220.53 252.209V284.561H188.066Z" fill="#309BFF" stroke="#816767" stroke-width="0.290626"/>
    <path d="M229.551 255.789H138.632V227.307H180.162H180.228L180.272 227.258L188.802 217.484L251.169 216.765L229.535 227.031L229.352 227.118L229.493 227.263L245.768 244.057L229.551 255.789Z" fill="#30FFEE" stroke="#816767" stroke-width="0.290626"/>
    <path d="M229.743 255.789V223.498L262.235 222.922L262.206 255.789H229.743Z" fill="#309BFF" stroke="#816767" stroke-width="0.290626"/>
    <path d="M180.308 198.536H271.233L294.075 212.344L271.231 227.017H257.701H253.749H184.347H180.308V198.536Z" fill="#30FFEE" stroke="#816767" stroke-width="0.290626"/>
    <path d="M271.419 227.017V198.536H303.882V227.017H271.419Z" fill="#309BFF" stroke="#816767" stroke-width="0.290626"/>
    <path d="M220.617 255.934H138.486H220.617Z" fill="#FFC930"/>
    <path d="M220.617 255.934H138.486" stroke="#816767" stroke-width="1.1625" stroke-linecap="round" stroke-linejoin="round"/>
    <path d="M262.467 227.162H180.046H262.467Z" fill="#FFC930"/>
    <path d="M262.467 227.162H180.046" stroke="#816767" stroke-width="1.1625" stroke-linecap="round" stroke-linejoin="round"/>
    <path d="M304.027 198.39H206.667H304.027Z" fill="#FFC930"/>
    <path d="M304.027 198.39H206.667" stroke="#816767" stroke-width="1.1625" stroke-linecap="round" stroke-linejoin="round"/>
    <path d="M381.74 229.894L379.008 232.626C374.533 237.102 368.401 235.038 363.925 233.556C360.379 232.364 357.793 231.609 356.776 232.626C355.758 233.643 356.514 236.23 357.705 239.775C359.188 244.251 361.251 250.383 356.776 254.859C352.3 259.335 346.168 257.271 341.692 255.789C338.146 254.597 335.56 253.842 334.543 254.859C333.525 255.876 334.281 258.463 335.473 262.008C336.955 266.484 339.018 272.616 334.543 277.092C330.067 281.567 323.935 279.504 319.459 278.022C315.913 276.83 313.327 276.075 312.31 277.092L309.578 279.824L304.114 274.36L306.846 271.628C311.322 267.152 317.454 269.216 321.929 270.698C325.475 271.89 328.062 272.645 329.079 271.628C330.096 270.611 329.34 268.024 328.149 264.479C326.667 260.003 324.603 253.871 329.079 249.395C333.554 244.919 339.687 246.983 344.162 248.465C347.708 249.657 350.295 250.412 351.312 249.395C352.329 248.378 351.573 245.791 350.382 242.246C348.9 237.77 346.836 231.638 351.312 227.162C355.787 222.687 361.92 224.75 366.395 226.232C369.941 227.424 372.527 228.179 373.545 227.162L376.277 224.43L381.74 229.894Z" fill="white"/>
    <path d="M45.399 13.9211L77.2807 37.084C77.3969 36.9678 77.455 36.6771 77.3969 36.4446L66.5275 0.00012207L45.9802 9.82329C45.7477 9.91047 45.2246 13.7467 45.399 13.9211Z" fill="#FFA0DC"/>
    <path d="M77.1936 37.1131L43.6263 20.4021C43.5391 20.344 43.481 20.2568 43.5101 20.1405L45.806 9.9686C45.8351 9.79423 46.0385 9.7361 46.1838 9.85235L77.3099 36.9678C77.368 37.055 77.2808 37.1712 77.1936 37.1131Z" fill="#231F20"/>
    <path d="M18.2108 55.7333H94.6745C104.559 55.7333 106.154 61.6272 106.154 71.5579L112.626 139.419V150.146C112.626 160.03 104.602 168.098 94.6745 168.098H18.2108C8.32657 168.098 0.258789 160.077 0.258789 150.146V139.419L11.2532 73.9962C11.2532 64.0655 8.28298 55.7333 18.2108 55.7333Z" fill="#231F20"/>
    <path d="M18.2108 45.0063H94.6745C104.559 45.0063 112.626 53.0276 112.626 62.9583V139.419C112.626 149.303 104.602 157.371 94.6745 157.371H18.2108C8.32657 157.371 0.258789 149.35 0.258789 139.419V62.9147C0.258789 53.0276 8.28298 45.0063 18.2108 45.0063Z" fill="url(#paint11_linear_1_1481)"/>
    <path d="M41.8361 91.0126L29.3683 56.5328C29.1125 55.8033 29.4758 54.9982 30.2082 54.7425C30.7575 54.5594 31.3794 54.7047 31.7427 55.1436L55.2892 82.8955L41.8361 91.0126Z" fill="white"/>
    <path d="M94.9596 106.369C86.6245 87.0631 69.2944 68.71 61.9445 61.4328C61.1046 60.6277 59.788 60.6277 58.983 61.4705C58.6168 61.8367 58.3989 62.3482 58.3611 62.8946L57.9949 75.8391L21.5794 99.2403C15.8395 102.931 14.0115 110.464 17.4118 116.387L17.5949 116.681C21.2132 123.043 29.2955 125.234 35.6573 121.616C35.8753 121.505 36.0962 121.36 36.3142 121.215C39.0926 119.421 41.249 118.032 41.249 118.032C44.0652 120.52 51.232 122.822 55.4374 121.433L49.6219 141.506C49.1104 143.334 50.1363 145.235 51.9266 145.784C75.9469 153.57 106.259 132.511 94.9596 106.369Z" fill="#FF4F32"/>
    <path d="M54.2312 94.2675C55.2396 94.2675 56.0592 93.448 56.0592 92.4395C56.0592 91.4281 55.2396 90.6115 54.2312 90.6115C53.2198 90.6115 52.4031 91.4281 52.4031 92.4395C52.4031 93.448 53.2198 94.2675 54.2312 94.2675Z" fill="#231F20"/>
    <path d="M55.4371 121.432C60.6655 120.043 63.4439 115.254 63.4439 115.254" stroke="#100200" stroke-width="1.1625" stroke-linecap="round" stroke-linejoin="round"/>
    <path d="M57.9948 75.839L57.5211 81.0674" stroke="#100200" stroke-width="1.1625" stroke-linecap="round" stroke-linejoin="round"/>
    <path d="M22.3119 121.505L32.4024 115.472" stroke="#100200" stroke-width="1.1625" stroke-linecap="round" stroke-linejoin="round"/>
    <path d="M22.3465 106.881L21.2509 110.647C20.9951 111.598 21.5066 112.548 22.457 112.842C22.6401 112.914 22.858 112.914 23.0411 112.914H23.1893C24.1746 112.842 24.9069 112.037 24.8343 111.048C24.8343 110.865 24.7616 110.647 24.6861 110.464L23.1516 106.843C23.0411 106.625 22.7854 106.515 22.5674 106.625C22.457 106.66 22.3843 106.77 22.3465 106.881Z" fill="#331E1A"/>
    <path d="M38.6184 82.0904L45.5644 71.4506" stroke="#6A6A6A" stroke-width="1.1625" stroke-linecap="round" stroke-linejoin="round"/>
    <path d="M35.2185 72.6945L40.1911 65.1266" stroke="#6A6A6A" stroke-width="1.1625" stroke-linecap="round" stroke-linejoin="round"/>
    <path d="M32.036 63.8825L35.1079 59.1307" stroke="#6A6A6A" stroke-width="1.1625" stroke-linecap="round" stroke-linejoin="round"/>
    <path d="M75.6937 99.124H146.615C152.436 99.124 157.171 103.855 157.171 109.68V180.601C157.171 186.422 152.436 191.157 146.615 191.157H75.6937C69.8695 191.157 65.1381 186.422 65.1381 180.601V109.68C65.1381 103.855 69.8695 99.124 75.6937 99.124Z" fill="#231F20"/>
    <path d="M75.5486 99.6298H148.301C153.928 99.6298 158.493 104.198 158.493 109.822V180.77C158.493 186.393 153.928 190.962 148.301 190.962H75.5486C69.9221 190.962 65.3563 186.393 65.3563 180.77V109.822C65.3563 104.198 69.9221 99.6298 75.5486 99.6298Z" fill="#231F20"/>
    <path d="M79.78 99.6298L96.7554 118.98L101.295 99.6298" stroke="white" stroke-width="1.1625" stroke-linecap="round" stroke-linejoin="round"/>
    <path d="M73.7933 133.427L96.7557 118.98L109.398 139.879L73.7933 133.427Z" stroke="white" stroke-width="1.1625" stroke-linecap="round" stroke-linejoin="round"/>
    <path d="M111.926 99.6298L117.396 111.758L109.398 139.879L149.385 154.584L158.493 139.879" stroke="white" stroke-width="1.1625" stroke-linecap="round" stroke-linejoin="round"/>
    <path d="M132.102 99.6298L117.396 111.758L158.493 109.822" stroke="white" stroke-width="1.1625" stroke-linecap="round" stroke-linejoin="round"/>
    <path d="M109.398 139.879L89.0161 177.802L124.103 168.773L109.398 139.879Z" stroke="white" stroke-width="1.1625" stroke-linecap="round" stroke-linejoin="round"/>
    <path d="M65.2809 117.175L73.7933 133.427L65.3564 139.879" stroke="white" stroke-width="1.1625" stroke-linecap="round" stroke-linejoin="round"/>
    <path d="M65.2809 157.833L89.0163 177.802L78.1789 190.962" stroke="white" stroke-width="1.1625" stroke-linecap="round" stroke-linejoin="round"/>
    <path d="M91.5939 190.962L89.0161 177.802" stroke="white" stroke-width="1.1625" stroke-linecap="round" stroke-linejoin="round"/>
    <path d="M119.898 190.962L124.104 168.773L149.385 154.584L158.493 165.419" stroke="white" stroke-width="1.1625" stroke-linecap="round" stroke-linejoin="round"/>
    <path d="M124.104 168.773L158.493 174.449" stroke="white" stroke-width="1.1625" stroke-linecap="round" stroke-linejoin="round"/>
    <path d="M109.398 143.232C111.249 143.232 112.752 141.73 112.752 139.878C112.752 138.024 111.249 136.525 109.398 136.525C107.544 136.525 106.044 138.024 106.044 139.878C106.044 141.73 107.544 143.232 109.398 143.232Z" fill="white"/>
    <path d="M89.0162 181.156C90.8675 181.156 92.3701 179.657 92.3701 177.802C92.3701 175.951 90.8675 174.449 89.0162 174.449C87.162 174.449 85.6624 175.951 85.6624 177.802C85.6624 179.657 87.162 181.156 89.0162 181.156Z" fill="white"/>
    <path d="M149.385 157.938C151.239 157.938 152.739 156.436 152.739 154.584C152.739 152.73 151.239 151.23 149.385 151.23C147.534 151.23 146.031 152.73 146.031 154.584C146.031 156.436 147.534 157.938 149.385 157.938Z" fill="white"/>
    <path d="M117.396 115.111C119.247 115.111 120.75 113.609 120.75 111.758C120.75 109.903 119.247 108.404 117.396 108.404C115.542 108.404 114.039 109.903 114.039 111.758C114.039 113.609 115.542 115.111 117.396 115.111Z" fill="white"/>
    <path d="M96.7556 122.334C98.6069 122.334 100.109 120.834 100.109 118.98C100.109 117.129 98.6069 115.626 96.7556 115.626C94.9014 115.626 93.4017 117.129 93.4017 118.98C93.4017 120.834 94.9014 122.334 96.7556 122.334Z" fill="white"/>
    <path d="M73.7935 136.783C75.6448 136.783 77.1473 135.281 77.1473 133.427C77.1473 131.575 75.6448 130.073 73.7935 130.073C71.9422 130.073 70.4397 131.575 70.4397 133.427C70.4397 135.281 71.9422 136.783 73.7935 136.783Z" fill="white"/>
    <path d="M124.104 172.126C125.955 172.126 127.458 170.627 127.458 168.773C127.458 166.921 125.955 165.419 124.104 165.419C122.25 165.419 120.75 166.921 120.75 168.773C120.75 170.627 122.25 172.126 124.104 172.126Z" fill="white"/>
    <path d="M157.185 70.8113V70.7241C156.459 66.8878 158.842 64.0397 158.319 61.1625L160.208 55.9603L159.539 53.6643C158.813 49.7409 156.546 49.4503 160.789 45.6721C163.521 43.2599 164.422 43.0274 168.52 43.0274C170.67 43.0274 170.67 41.5743 172.647 42.359C175.204 43.3471 177.907 41.2837 179.128 43.289C180.348 45.2943 181.162 47.7646 182.179 50.7871L182.266 51.0196L182.47 51.5718C183.4 51.6881 184.94 52.0078 185.144 52.8506C185.405 53.8968 184.184 55.4953 183.923 55.7859C185.609 61.1625 185.55 64.0978 183.778 66.5972C182.644 68.1666 180.348 69.0966 177.674 69.0966C176.657 69.1256 175.64 68.9513 174.681 68.6025L175.001 70.5788L174.652 71.3344L165.788 70.8403L157.185 70.8113Z" fill="#C65A42"/>
    <path d="M179.447 58.198C179.912 59.1861 181.365 59.3024 182.092 59.0408" stroke="#222020" stroke-width="1.1625" stroke-linecap="round" stroke-linejoin="round"/>
    <path d="M179.069 51.6591C179.505 51.6591 179.825 52.0078 179.825 52.4147C179.825 52.8216 179.476 53.1703 179.069 53.1703C178.633 53.1703 178.314 52.8216 178.314 52.4147C178.285 52.0078 178.633 51.6591 179.069 51.6591Z" fill="#231F20"/>
    <path d="M172.152 67.3528C172.152 67.3528 173.489 68.1084 174.681 68.6315" stroke="#222020" stroke-width="1.1625" stroke-linecap="round" stroke-linejoin="round"/>
    <path d="M166.369 57.646L168.81 59.0991" stroke="#222020" stroke-width="1.1625" stroke-linecap="round" stroke-linejoin="round"/>
    <path d="M208.917 84.7904L210.719 79.7335C213.014 77.3213 215.601 74.8219 219.089 71.8576C225.221 66.6263 230.917 64.3013 233.852 64.3013C234.899 64.3013 235.654 64.5919 236.003 65.1441C236.032 65.1441 236.09 65.1441 236.148 65.1441C236.701 65.1441 238.066 65.2313 238.648 66.1613C239.055 66.8297 238.967 67.7597 238.386 68.9513C238.677 69.1547 240.275 70.4044 238.938 73.0782C238.561 73.8048 236.759 75.5776 233.533 78.3095C234.376 77.8445 236.148 77.0307 237.369 77.0307C237.747 77.0016 238.125 77.147 238.386 77.4085C238.648 77.7573 238.735 78.1641 238.648 78.6001C238.502 79.937 235.8 82.0585 232.399 84.7032C229.115 87.2607 226.616 89.3242 224.175 92.3176L217.723 94.1777L208.917 84.7904Z" fill="#C65A42"/>
    <path opacity="0.3" d="M169.973 71.0147L169.624 67.7887C169.595 67.5853 169.653 67.3819 169.799 67.2075C169.944 67.0622 170.205 66.8006 170.409 66.7425C170.7 66.6553 171.252 66.8297 171.368 66.8878C172.618 67.5562 173.315 68.2537 174.681 68.6315L175.03 70.8403L169.973 70.9566V71.0147Z" fill="#222020"/>
    <path d="M148.496 128.937C139.748 123.182 134.633 117.631 136.202 107.605C136.929 102.809 138.789 96.4445 141.317 90.138C143.904 83.5117 146.607 79.8498 147.624 78.571C151.344 74.0082 156.633 73.1363 157.476 73.0491C157.389 72.6132 157.069 70.4916 157.04 70.4044V70.3463L175.001 70.6079L175.786 73.7176H175.844C178.808 73.9501 189.3 75.8391 199.995 90.2251C200.605 89.6439 206.854 83.5989 210.69 79.7626L210.719 79.7335L224.175 92.3176L224.146 92.3467C223.739 92.8698 223.303 93.393 222.896 93.9452C217.345 101.036 209.76 110.714 200.285 111.383C200.082 111.383 199.879 111.412 199.675 111.412C196.42 111.412 192.962 109.639 190.608 108.128C189.096 107.169 187.672 106.093 186.335 104.902L182.557 121.991H152.623C152.477 122.223 151.257 124.112 148.583 128.937L148.554 128.995L148.496 128.937Z" fill="#61CCFF"/>
    <path opacity="0.3" d="M148.409 128.878C146.055 127.309 143.846 125.74 141.753 123.763L141.695 123.705L141.753 123.676C143.584 122.514 145.095 120.915 146.142 118.997C147.072 117.282 147.421 114.638 147.74 112.313C148.147 109.174 148.525 106.471 150.123 106.471C150.181 106.471 150.211 106.471 150.269 106.471L150.588 106.529L153.059 119.665L153.204 120.014C153.175 120.043 150.356 123.327 148.525 128.936L148.467 128.966L148.409 128.878Z" fill="#2A4552"/>
    <path d="M155.238 74.9381C154.192 74.9091 153.175 74.5894 152.274 74.0081C151.198 73.3978 150.443 72.3806 150.181 71.16C149.658 68.8059 151.111 66.2484 151.373 65.8415C149.949 65.115 148.35 63.6037 148.786 60.5812C149.338 56.774 153.93 56.4543 154.541 56.4543V56.3962C153.814 52.4727 152.477 45.178 156.72 41.3999C159.452 38.9877 163.376 37.5927 167.473 37.5927C169.624 37.5927 171.746 37.9705 173.722 38.7552C175.989 39.598 177.907 41.1964 179.128 43.2889V43.318V43.3471C179.128 43.3761 178.517 47.6193 174.245 47.6193C174.129 47.6193 174.013 47.6193 174.059 47.6309C174.478 50.6127 173.983 52.7924 173.431 54.1293C173.141 54.943 172.676 55.6696 172.123 56.338L172.094 56.3671L172.065 56.338C172.036 56.309 168.374 53.1702 165.352 53.1702C164.247 53.1412 163.172 53.6643 162.562 54.5943C159.714 58.5759 166.631 64.0978 166.631 64.0978C166.631 64.0978 167.793 68.3409 165.991 70.6659C165.177 71.7122 163.928 72.2644 162.242 72.2644C161.574 72.2644 160.905 72.1772 160.237 72.0609C159.946 72.2934 158.057 74.9381 155.238 74.9381Z" fill="#231F20"/>
    <path d="M186.335 104.902L180.784 100.106" stroke="#2A4552" stroke-width="1.1625" stroke-linecap="round" stroke-linejoin="round"/>
    <path d="M199.995 90.2251L200.518 95.6017" stroke="#2A4552" stroke-width="1.1625" stroke-linecap="round" stroke-linejoin="round"/>
    <path d="M236.003 65.144C232.225 66.8878 225.541 71.625 223.216 73.6594" stroke="#222020" stroke-width="1.1625" stroke-linecap="round" stroke-linejoin="round"/>
    <path d="M238.386 68.9513C233.155 71.5669 226.412 77.147 226.412 77.147" stroke="#222020" stroke-width="1.1625" stroke-linecap="round" stroke-linejoin="round"/>
    <path d="M233.533 78.3094L229.609 81.0413" stroke="#222020" stroke-width="1.1625" stroke-linecap="round" stroke-linejoin="round"/>
    <path opacity="0.3" d="M175.175 122.136L177.82 102.431C177.965 101.24 178.982 100.368 180.174 100.368C180.726 100.368 181.278 100.571 181.685 100.949L186.335 104.902L182.528 122.136H175.175Z" fill="#2A4552"/>
    <path d="M133.471 217.258L133.354 217.171C134.895 210.719 136.755 205.022 138.556 199.442C140.068 194.792 141.463 190.404 142.654 185.841C144.514 178.605 144.601 170.031 144.689 160.963C144.834 146.142 144.979 130.796 153.117 120.072L153.146 120.043L182.964 120.101C183.08 120.16 191.509 124.054 201.186 129.605C217.374 138.876 224.204 145.531 227.052 149.484C229.697 153.117 230.976 157.883 230.888 163.637C230.801 167.328 230.22 170.961 229.145 174.478C227.227 180.435 225.89 184.562 224.785 187.875L224.669 188.37L223.855 189.212L196.798 188.718L196.682 188.37C198.135 182.441 200.053 176.628 201.855 170.932C202.523 168.869 203.134 166.892 203.744 164.945C201.535 164.073 198.542 163.143 195.112 162.039C188.748 160.004 180.814 157.505 174.769 154.424C173.112 168.694 171.165 179.854 168.985 187.585C166.369 196.856 163.347 206.766 160.005 217.171L159.743 217.461L133.587 217.316L133.471 217.258Z" fill="#00D692"/>
    <path opacity="0.3" d="M196.682 188.573L196.652 188.37C198.106 182.441 200.024 176.628 201.826 170.932C202.494 168.84 203.133 166.892 203.715 164.945L212.637 161.545C213.945 161.981 210.777 168.404 210.341 169.712C210.283 169.857 210.225 170.002 210.137 170.147C206.853 176.047 204.063 182.179 201.767 188.515V188.544L197.03 188.718L196.682 188.573Z" fill="#24221C"/>
    <path opacity="0.3" d="M151.634 217.287L151.663 217.2C151.692 217.142 153.901 210.922 159.51 191.625C162.068 182.819 162.329 171.339 162.562 162.155C162.649 158.203 162.736 154.802 162.969 152.187C163.114 150.617 164.451 148.903 166.02 149.048C166.514 149.106 167.066 149.455 167.473 149.716C169.624 151.78 174.71 154.424 174.71 154.424C173.402 165.73 171.862 175.088 170.205 182.354C169.769 184.243 169.333 185.986 168.897 187.585C166.282 196.856 163.288 206.766 159.946 217.171L159.772 217.345L151.605 217.258L151.634 217.287Z" fill="#24221C"/>
    <path d="M153.146 120.043L149.397 100.106" stroke="#2A4552" stroke-width="1.1625" stroke-linecap="round" stroke-linejoin="round"/>
    <path d="M144.136 101.705L149.338 100.106" stroke="#2A4552" stroke-width="1.1625" stroke-linecap="round" stroke-linejoin="round"/>
    <path d="M153.146 120.043L182.964 120.101" stroke="#2A4552" stroke-width="1.1625" stroke-linecap="round" stroke-linejoin="round"/>
    <path d="M174.739 154.424C166.747 150.356 162.766 145.444 161.603 142.247" stroke="#24221C" stroke-width="1.1625" stroke-linecap="round" stroke-linejoin="round"/>
    <path d="M203.714 164.945L213.043 161.429" stroke="#24221C" stroke-width="1.1625" stroke-linecap="round" stroke-linejoin="round"/>
    <path d="M129.983 251.29L129.721 250.883C129.518 238.968 130.651 228.331 133.325 217.258L133.354 217.171H159.975L159.946 217.258C158.813 220.803 157.592 224.436 156.401 228.011C153.262 237.398 155.849 241.729 161.022 245.681C163.172 247.309 164.742 249.023 165.73 250.883V251.087L129.983 251.29Z" fill="white"/>
    <path d="M129.895 256.521V256.463C129.808 254.632 129.75 252.772 129.721 250.941V250.883H165.73L165.759 250.912C167.415 254.08 166.718 256.492 166.718 256.492L129.895 256.521Z" fill="#353535"/>
    <path d="M193.252 227.749V227.691C193.165 225.86 193.107 224.058 193.078 222.227L193.31 222.024L229.028 222.111L229.202 222.227C230.859 225.395 230.132 227.72 230.132 227.72L193.252 227.749Z" fill="#353535"/>
    <path d="M193.078 222.228L193.049 221.239C192.816 209.033 193.979 199.239 196.652 188.428V188.442H224.669L223.928 191.564C223.099 194.316 222.315 195.403 221.239 198.919C219.815 203.627 218.304 212.23 224.407 216.88C226.558 218.508 228.156 220.28 229.144 222.14L229.173 222.228H193.078Z" fill="white"/>
    <path d="M154.977 232.835L148.815 232.923" stroke="#353535" stroke-width="1.1625" stroke-linecap="round" stroke-linejoin="round"/>
    <path d="M154.977 237.398L149.484 238.735" stroke="#353535" stroke-width="1.1625" stroke-linecap="round" stroke-linejoin="round"/>
    <path d="M156.662 241.264L151.896 243.763" stroke="#353535" stroke-width="1.1625" stroke-linecap="round" stroke-linejoin="round"/>
    <path d="M145.618 217.229C141.433 230.307 141.026 250.941 141.026 250.892" stroke="#353535" stroke-width="1.1625" stroke-linecap="round" stroke-linejoin="round"/>
    <path d="M159.976 217.171H133.354" stroke="#353535" stroke-width="1.1625" stroke-linecap="round" stroke-linejoin="round"/>
    <path d="M220.077 204.063L214.497 204.15" stroke="#353535" stroke-width="1.1625" stroke-linecap="round" stroke-linejoin="round"/>
    <path d="M220.077 208.626L214.584 209.963" stroke="#353535" stroke-width="1.1625" stroke-linecap="round" stroke-linejoin="round"/>
    <path d="M221.181 212.782L216.415 215.282" stroke="#353535" stroke-width="1.1625" stroke-linecap="round" stroke-linejoin="round"/>
    <path d="M210.196 188.37C206.912 198.832 204.616 215.776 204.47 222.169" stroke="#353535" stroke-width="1.1625" stroke-linecap="round" stroke-linejoin="round"/>
    <path d="M196.652 188.37H224.669" stroke="#353535" stroke-width="1.1625" stroke-linecap="round" stroke-linejoin="round"/>
    <path d="M12.4124 197.402L16.9462 220.681C17.1787 220.74 17.324 220.74 17.4984 220.74L65.9458 215.421C66.2945 215.392 66.3527 214.869 66.0039 214.753L13.3134 197.199C12.9646 197.083 12.4996 196.995 12.4124 197.402Z" fill="#FF4F32"/>
    <path d="M12.4416 197.344L7.5881 217.572L16.9463 220.681C17.0625 220.71 17.1497 220.623 17.1497 220.507L12.6159 197.344C12.5869 197.257 12.4416 197.257 12.4416 197.344Z" fill="#231F20"/>
    <path d="M48.6773 224.36L65.2721 255.748C65.5337 255.951 66.173 255.951 66.3183 255.719L100.293 204.336C100.38 204.191 100.234 204.017 100.089 204.075L49.0842 223.256C48.8517 223.314 48.3576 223.837 48.6773 224.36Z" fill="#FFA0DC"/>
    <path d="M48.9099 223.896L65.5918 255.458C65.7081 255.661 65.4756 255.894 65.2721 255.748L45.3642 243.048L48.5611 223.954C48.5902 223.779 48.8227 223.721 48.9099 223.896Z" fill="#231F20"/>
    <path d="M353.468 150.954L311.606 143.645L328.065 182.746L332.38 171.871L344.953 181.912L356.375 167.613L343.802 157.572L353.468 150.954Z" fill="#231F20"/>
    <defs>
    <linearGradient id="paint0_linear_1_1481" x1="304.114" y1="62.1012" x2="242.06" y2="184.625" gradientUnits="userSpaceOnUse">
    <stop offset="0.125" stop-color="#2EF0EB"/>
    <stop offset="1" stop-color="#309BFF"/>
    </linearGradient>
    <linearGradient id="paint1_linear_1_1481" x1="291.783" y1="62.1012" x2="289.417" y2="62.1376" gradientUnits="userSpaceOnUse">
    <stop offset="0.125" stop-color="#2EF0EB"/>
    <stop offset="1" stop-color="#309BFF"/>
    </linearGradient>
    <linearGradient id="paint2_linear_1_1481" x1="266.092" y1="62.1012" x2="263.726" y2="62.1376" gradientUnits="userSpaceOnUse">
    <stop offset="0.125" stop-color="#2EF0EB"/>
    <stop offset="1" stop-color="#309BFF"/>
    </linearGradient>
    <linearGradient id="paint3_linear_1_1481" x1="317.446" y1="62.1012" x2="315.079" y2="62.1376" gradientUnits="userSpaceOnUse">
    <stop offset="0.125" stop-color="#2EF0EB"/>
    <stop offset="1" stop-color="#309BFF"/>
    </linearGradient>
    <linearGradient id="paint4_linear_1_1481" x1="343.137" y1="62.1012" x2="340.771" y2="62.1376" gradientUnits="userSpaceOnUse">
    <stop offset="0.125" stop-color="#2EF0EB"/>
    <stop offset="1" stop-color="#309BFF"/>
    </linearGradient>
    <linearGradient id="paint5_linear_1_1481" x1="304.114" y1="191.488" x2="304.112" y2="192.338" gradientUnits="userSpaceOnUse">
    <stop offset="0.125" stop-color="#2EF0EB"/>
    <stop offset="1" stop-color="#309BFF"/>
    </linearGradient>
    <linearGradient id="paint6_linear_1_1481" x1="304.114" y1="217.354" x2="304.114" y2="217.452" gradientUnits="userSpaceOnUse">
    <stop offset="0.125" stop-color="#2EF0EB"/>
    <stop offset="1" stop-color="#309BFF"/>
    </linearGradient>
    <linearGradient id="paint7_linear_1_1481" x1="304.114" y1="139.669" x2="304.114" y2="139.719" gradientUnits="userSpaceOnUse">
    <stop offset="0.125" stop-color="#2EF0EB"/>
    <stop offset="1" stop-color="#309BFF"/>
    </linearGradient>
    <linearGradient id="paint8_linear_1_1481" x1="304.158" y1="165.622" x2="304.156" y2="166.472" gradientUnits="userSpaceOnUse">
    <stop offset="0.125" stop-color="#2EF0EB"/>
    <stop offset="1" stop-color="#309BFF"/>
    </linearGradient>
    <linearGradient id="paint9_linear_1_1481" x1="304.114" y1="113.833" x2="304.114" y2="113.857" gradientUnits="userSpaceOnUse">
    <stop offset="0.125" stop-color="#2EF0EB"/>
    <stop offset="1" stop-color="#309BFF"/>
    </linearGradient>
    <linearGradient id="paint10_linear_1_1481" x1="304.114" y1="87.9669" x2="304.112" y2="88.8172" gradientUnits="userSpaceOnUse">
    <stop offset="0.125" stop-color="#2EF0EB"/>
    <stop offset="1" stop-color="#309BFF"/>
    </linearGradient>
    <linearGradient id="paint11_linear_1_1481" x1="56.4426" y1="45.0063" x2="56.4426" y2="157.371" gradientUnits="userSpaceOnUse">
    <stop offset="0.433003" stop-color="#30BAFF"/>
    <stop offset="1" stop-color="#1D3A99"/>
    </linearGradient>
    </defs>
</svg>
