<svg width="726" height="546" viewBox="0 0 726 546" fill="none" xmlns="http://www.w3.org/2000/svg">
    <path d="M400.306 383.512H426.123C440.556 383.512 452.347 371.653 452.347 357.14" stroke="#333333" stroke-width="0.906313" stroke-linecap="round" stroke-linejoin="round"/>
    <path d="M362.087 410.697C362.087 395.672 374.082 383.612 389.023 383.612" stroke="#333333" stroke-width="0.906313" stroke-linecap="round" stroke-linejoin="round"/>
    <path d="M386.276 318.2H167.035C152.701 318.2 141.114 306.545 141.114 292.133C141.114 277.725 152.701 266.07 167.035 266.07H202.1" stroke="#333333" stroke-width="0.906313" stroke-linecap="round" stroke-linejoin="round"/>
    <path d="M350.907 266.274H428.461C447.67 266.274 463.426 250.64 463.426 231.118C463.426 211.8 447.874 196.056 428.461 196.056H407.112" stroke="#333333" stroke-width="0.906313" stroke-linecap="round" stroke-linejoin="round"/>
    <path d="M309.131 266.274H341.147" stroke="#333333" stroke-width="0.906313" stroke-linecap="round" stroke-linejoin="round"/>
    <path d="M479.178 196.161C493.815 196.161 505.507 184.202 505.507 169.585V130.645" stroke="#333333" stroke-width="0.906313" stroke-linecap="round" stroke-linejoin="round"/>
    <path d="M428.56 196.161H468.61" stroke="#333333" stroke-width="0.906313" stroke-linecap="round" stroke-linejoin="round"/>
    <path d="M544.782 193.218H405.305V343.428H544.782V193.218Z" fill="#23A3FF" stroke="#333333" stroke-width="0.906313" stroke-linecap="round" stroke-linejoin="round"/>
    <path d="M544.782 193.218H405.305V343.428H544.782V193.218Z" fill="#23A3FF" stroke="#333333" stroke-width="0.906313" stroke-linecap="round" stroke-linejoin="round"/>
    <path d="M329.483 292.378H190.001V442.587H329.483V292.378Z" fill="#4423FF" stroke="#333333" stroke-width="0.906313" stroke-linecap="round" stroke-linejoin="round"/>
    <path d="M329.483 292.378H190.001V442.587H329.483V292.378Z" stroke="#333333" stroke-width="0.906313" stroke-linecap="round" stroke-linejoin="round"/>
    <path d="M384.283 122.855H244.806V273.065H384.283V122.855Z" fill="#23FFD3" stroke="#333333" stroke-width="0.906313" stroke-linecap="round" stroke-linejoin="round"/>
    <path d="M384.283 122.855H244.806V273.065H384.283V122.855Z" stroke="#333333" stroke-width="0.906313" stroke-linecap="round" stroke-linejoin="round"/>
    <path d="M199.821 125.739L194.102 169.199C192.276 182.825 202.309 195.289 215.985 196.37L243.011 198.609L235.299 273.56H322.758L329.057 206.921L338.011 223.873C344.061 235.337 358.566 239.243 369.591 232.43L417.59 203.347L402.423 178.337L358.983 203.428L349.199 185.732C344.228 176.757 335.106 170.943 324.91 170.193L224.029 163.216L233.395 96.8235L203.967 94.4979L200.732 118.926" fill="white"/>
    <path d="M199.821 125.739L194.102 169.199C192.276 182.825 202.309 195.289 215.985 196.37L243.011 198.609L235.299 273.56H322.758L329.057 206.921L338.011 223.873C344.061 235.337 358.566 239.243 369.591 232.43L417.59 203.347L402.423 178.337L358.983 203.428L349.199 185.732C344.228 176.757 335.106 170.943 324.91 170.193L224.029 163.216L233.395 96.8235L203.967 94.4979L200.732 118.926" stroke="#333333" stroke-width="0.906313" stroke-linecap="round" stroke-linejoin="round"/>
    <path d="M314.632 177.257H316.54C319.44 177.257 321.847 174.849 321.847 171.938V159.81C321.847 156.899 319.44 154.491 316.54 154.491H314.632C312.811 154.491 311.315 155.986 311.315 157.812V173.932C311.315 175.762 312.811 177.257 314.632 177.257Z" fill="#3D84A8" stroke="#333333" stroke-width="0.906313" stroke-linecap="round" stroke-linejoin="round"/>
    <path d="M271.528 170.611V163.216H279.567V147.678H301.867L315.294 154.491C316.79 157.648 317.619 161.136 317.619 164.793C317.619 167.368 317.202 169.862 316.459 172.274C313.305 181.912 304.269 188.889 293.66 188.889C283.714 188.889 275.172 182.739 271.528 174.099V172.605V170.611Z" fill="white" stroke="#333333" stroke-width="0.906313" stroke-linecap="round" stroke-linejoin="round"/>
    <path d="M306.095 166.205V170.861" stroke="#333333" stroke-width="0.906313" stroke-linecap="round" stroke-linejoin="round"/>
    <path d="M299.628 170.861C299.628 172.605 301.038 174.1 302.859 174.1C304.604 174.1 306.095 172.687 306.095 170.861" stroke="#333333" stroke-width="0.906313" stroke-linecap="round" stroke-linejoin="round"/>
    <path d="M305.678 185.65C308.664 185.65 315.38 185.65 315.38 185.65C315.38 185.65 315.38 177.756 315.38 175.181C313.554 178.669 309.992 183.488 305.678 185.65Z" fill="#48466D" stroke="#333333" stroke-width="0.906313" stroke-linecap="round" stroke-linejoin="round"/>
    <path d="M269.702 164.793C269.702 161.055 270.531 157.566 272.022 154.491C275.919 146.429 284.126 140.778 293.66 140.778C303.195 140.778 311.483 146.347 315.294 154.491H308.084C304.604 154.491 301.785 151.666 301.785 148.173C301.785 151.666 298.967 154.491 295.482 154.491H282.136V161.386V163.462V185.65H269.702V165.542C269.702 165.292 269.702 165.043 269.702 164.793Z" fill="#48466D" stroke="#333333" stroke-width="0.906313" stroke-linecap="round" stroke-linejoin="round"/>
    <path d="M272.439 177.257H270.531C267.631 177.257 265.225 174.849 265.225 171.938V159.81C265.225 156.899 267.631 154.491 270.531 154.491H272.439C274.26 154.491 275.756 155.986 275.756 157.812V173.932C275.756 175.762 274.26 177.257 272.439 177.257Z" fill="#3D84A8" stroke="#333333" stroke-width="0.906313" stroke-linecap="round" stroke-linejoin="round"/>
    <path d="M270.531 154.491V149.254C270.531 141.609 276.748 135.378 284.375 135.378H302.696C310.323 135.378 316.54 141.609 316.54 149.254V154.491" stroke="#333333" stroke-width="0.906313" stroke-linecap="round" stroke-linejoin="round"/>
    <path d="M509.911 210.383L495.36 246.761C494.934 247.887 493.28 247.683 493.058 246.511L486.47 211.859L426.082 230.459C414.993 233.893 412.36 248.296 421.455 255.841L445.826 275.94L437.497 343.332L521.326 343.609L528.45 286.296L575.592 259.107C588.008 251.944 585.543 233.216 571.64 228.992L509.911 210.383Z" fill="white" stroke="#333333" stroke-width="0.906313" stroke-linecap="round" stroke-linejoin="round"/>
    <path d="M516.337 232.857L516.015 224.331C515.707 216.219 508.887 209.751 500.785 209.896L481.476 210.237C473.373 210.382 467.047 217.082 467.351 225.199L467.632 232.666" stroke="#333333" stroke-width="0.906313" stroke-linecap="round" stroke-linejoin="round"/>
    <path d="M535.646 243.399L490.19 263.857L452.578 241.519" stroke="#333333" stroke-width="0.906313" stroke-linecap="round" stroke-linejoin="round"/>
    <path d="M470.514 254.614L468.52 254.651C465.411 254.705 462.847 252.221 462.733 249.164L462.253 236.35C462.135 233.234 464.564 230.718 467.618 230.663L469.612 230.627C471.552 230.595 473.197 232.153 473.269 234.093L473.904 251.026C473.976 252.965 472.453 254.582 470.514 254.614Z" fill="#3D84A8" stroke="#333333" stroke-width="0.906313" stroke-linecap="round" stroke-linejoin="round"/>
    <path d="M469.317 230.636C469.317 230.636 486.12 215.038 505.47 226.639C509.494 229.037 518.018 236.945 515.635 250.167C512.218 259.288 503.535 265.797 493.208 265.979C482.11 266.178 472.449 259.111 468.842 249.173C467.931 246.779 467.419 244.14 467.319 241.437C467.169 237.554 467.858 233.897 469.317 230.636Z" fill="white" stroke="#333333" stroke-width="0.906313" stroke-linecap="round" stroke-linejoin="round"/>
    <path d="M481.131 244.84L481.226 247.306" stroke="#333333" stroke-width="0.906313" stroke-linecap="round" stroke-linejoin="round"/>
    <path d="M487.915 247.188C487.987 249.068 486.515 250.567 484.697 250.599C482.876 250.631 481.294 249.132 481.226 247.306" stroke="#333333" stroke-width="0.906313" stroke-linecap="round" stroke-linejoin="round"/>
    <path d="M491.323 216.006C501.247 215.829 510.033 221.497 514.402 229.832C516.047 233.039 517.066 236.668 517.211 240.552C517.316 243.254 516.998 245.848 516.273 248.333C516.06 248.982 515.906 249.573 515.639 250.227C509.535 250.336 504.473 245.485 504.247 239.425L503.898 230.078L469.322 230.695C472.992 222.156 481.344 216.183 491.323 216.006Z" fill="#48466D" stroke="#333333" stroke-width="0.906313" stroke-linecap="round" stroke-linejoin="round"/>
    <path d="M515.069 253.824L517.067 253.788C520.176 253.733 522.546 251.162 522.432 248.105L521.947 235.287C521.83 232.171 519.215 229.75 516.161 229.8L514.167 229.837C512.227 229.873 510.705 231.49 510.777 233.429L511.416 250.358C511.489 252.302 513.134 253.86 515.069 253.824Z" fill="#3D84A8" stroke="#333333" stroke-width="0.906313" stroke-linecap="round" stroke-linejoin="round"/>
    <path d="M407.453 331.863L440.778 312.059C434.08 300.645 421.686 293.091 407.453 293.091C386.018 293.091 368.767 310.547 368.767 331.863C368.767 353.352 386.186 370.64 407.453 370.64C421.686 370.64 433.913 362.918 440.778 351.672L407.453 331.863Z" fill="#3D84A8" stroke="#333333" stroke-width="0.906313" stroke-linecap="round" stroke-linejoin="round"/>
    <path d="M505.506 170.861C526.87 170.861 544.19 153.392 544.19 131.844C544.19 110.296 526.87 92.8266 505.506 92.8266C484.142 92.8266 466.823 110.296 466.823 131.844C466.823 153.392 484.142 170.861 505.506 170.861Z" fill="url(#paint0_linear_1_1384)" stroke="#333333" stroke-width="0.906313" stroke-linecap="round" stroke-linejoin="round"/>
    <path d="M523.02 117.673C526.1 121.556 527.929 126.507 527.929 131.844C527.929 144.362 517.922 154.46 505.507 154.46C493.095 154.46 483.084 144.362 483.084 131.844C483.084 119.321 493.095 109.229 505.507 109.229C510.897 109.229 515.801 111.168 519.652 114.275" fill="#FFBF23"/>
    <path d="M523.02 117.673C526.1 121.556 527.929 126.507 527.929 131.844C527.929 144.362 517.922 154.46 505.507 154.46C493.095 154.46 483.084 144.362 483.084 131.844C483.084 119.321 493.095 109.229 505.507 109.229C510.897 109.229 515.801 111.168 519.652 114.275" fill="#F4E8E8"/>
    <path d="M523.02 117.673C526.1 121.556 527.929 126.507 527.929 131.844C527.929 144.362 517.922 154.46 505.507 154.46C493.095 154.46 483.084 144.362 483.084 131.844C483.084 119.321 493.095 109.229 505.507 109.229C510.897 109.229 515.801 111.168 519.652 114.275" stroke="#333333" stroke-width="0.906313" stroke-linecap="round" stroke-linejoin="round"/>
    <path d="M518.882 131.844C518.882 139.316 512.915 145.334 505.507 145.334C498.099 145.334 492.132 139.316 492.132 131.844H518.882Z" fill="#FFBF23" stroke="#333333" stroke-width="0.906313" stroke-linecap="round" stroke-linejoin="round"/>
    <path d="M500.215 121.265V125.34V121.265Z" fill="#FFBF23"/>
    <path d="M500.215 121.265V125.34" stroke="#333333" stroke-width="0.906313" stroke-linecap="round" stroke-linejoin="round"/>
    <path d="M510.798 121.265V125.34V121.265Z" fill="#FFBF23"/>
    <path d="M510.798 121.265V125.34" stroke="#333333" stroke-width="0.906313" stroke-linecap="round" stroke-linejoin="round"/>
    <path d="M190.359 442.66H300.97V422.334H199.2L190.359 442.66Z" fill="#48466D" stroke="#333333" stroke-width="0.906313" stroke-linecap="round" stroke-linejoin="round"/>
    <path d="M302.401 393.541C308.573 400.84 316.893 405.919 326.188 408.135L366.088 417.646L373.044 388.395L328.394 377.712L297.33 337.523C294.276 333.548 289.532 331.204 284.529 331.204H267.631C249.695 331.204 233.512 341.888 226.493 358.43L210.506 395.953L208.099 401.554L197.636 425.981H270.427L309.353 455.751L317.673 444.872L327.552 431.845L300.906 411.524V391.915L302.401 393.541Z" fill="white" stroke="#333333" stroke-width="0.906313" stroke-linecap="round" stroke-linejoin="round"/>
    <path d="M300.97 391.851V373.415" stroke="#333333" stroke-width="0.906313" stroke-linecap="round" stroke-linejoin="round"/>
    <path d="M300.97 369.05V364.099" stroke="#333333" stroke-width="0.906313" stroke-linecap="round" stroke-linejoin="round"/>
    <path d="M298.763 322.733C298.763 322.733 283.098 308.988 266.136 319.74C262.628 321.952 255.156 329.247 257.753 341.106C261.133 349.246 269.127 354.978 278.484 354.978C294.993 354.914 305.846 337.65 298.763 322.733Z" fill="white" stroke="#333333" stroke-width="0.906313" stroke-linecap="round" stroke-linejoin="round"/>
    <path d="M290.053 334.461V338.045" stroke="#333333" stroke-width="0.906313" stroke-linecap="round" stroke-linejoin="round"/>
    <path d="M284.072 338.045C284.072 339.735 285.441 341.038 287.063 341.038C288.69 341.038 290.054 339.671 290.054 338.045" stroke="#333333" stroke-width="0.906313" stroke-linecap="round" stroke-linejoin="round"/>
    <path d="M278.484 309.901C262.433 309.901 251.58 326.317 257.752 341.038C263.213 341.038 267.631 336.609 267.631 331.136V322.733H298.763C295.119 315.179 287.452 309.901 278.484 309.901Z" fill="#48466D" stroke="#333333" stroke-width="0.906313" stroke-linecap="round" stroke-linejoin="round"/>
    <path d="M258.21 322.733H314.229" stroke="#333333" stroke-width="0.906313" stroke-linecap="round" stroke-linejoin="round"/>
    <path d="M300.97 411.456L261.328 381.169L261.522 381.101C268.932 381.101 274.909 375.109 274.909 367.683" stroke="#333333" stroke-width="0.906313" stroke-linecap="round" stroke-linejoin="round"/>
    <path d="M225.778 360.125C219.733 374.196 224.088 390.548 236.178 399.864L270.359 425.982" stroke="#333333" stroke-width="0.906313" stroke-linecap="round" stroke-linejoin="round"/>
    <path d="M168.992 210.237C174.942 206.476 181.962 204.323 189.471 204.323C210.733 204.323 227.944 221.574 227.944 242.886C227.944 264.194 210.733 281.445 189.471 281.445C168.213 281.445 151.002 264.194 151.002 242.886C151.002 231.108 156.268 220.552 164.606 213.462" fill="#3D84A8"/>
    <path d="M168.992 210.237C174.942 206.476 181.962 204.323 189.471 204.323C210.733 204.323 227.944 221.574 227.944 242.886C227.944 264.194 210.733 281.445 189.471 281.445C168.213 281.445 151.002 264.194 151.002 242.886C151.002 231.108 156.268 220.552 164.606 213.462" stroke="#333333" stroke-width="0.906313" stroke-linecap="round" stroke-linejoin="round"/>
    <path d="M210.293 236.141C208.34 236.141 206.636 236.972 205.417 238.24V226.807H194.007C195.325 228.029 196.105 229.787 196.105 231.694C196.105 235.405 193.082 238.44 189.375 238.44C185.669 238.44 182.646 235.405 182.646 231.694C182.646 229.737 183.475 228.029 184.744 226.807H173.334V259.011H205.467V247.578C206.686 248.896 208.44 249.677 210.338 249.677C214.045 249.677 217.068 246.647 217.068 242.932C217.068 239.221 214.045 236.141 210.293 236.141Z" fill="#ABEDD8" stroke="#333333" stroke-width="0.906313" stroke-linecap="round" stroke-linejoin="round"/>
    <path d="M494.658 463.059H397.936L425.769 395.958H522.491L494.658 463.059Z" fill="#48466D"/>
    <path d="M502.914 443.21L494.658 463.06H473.228" stroke="#333333" stroke-width="0.906313" stroke-linecap="round" stroke-linejoin="round"/>
    <path d="M469.349 463.059H464.704" stroke="#333333" stroke-width="0.906313" stroke-linecap="round" stroke-linejoin="round"/>
    <path d="M464.705 463.059H419.362" stroke="#333333" stroke-width="0.906313" stroke-linecap="round" stroke-linejoin="round"/>
    <path d="M419.362 463.06H397.936L406.143 443.21" stroke="#333333" stroke-width="0.906313" stroke-linecap="round" stroke-linejoin="round"/>
    <path d="M411.332 430.773L417.513 415.807" stroke="#333333" stroke-width="0.906313" stroke-linecap="round" stroke-linejoin="round"/>
    <path d="M417.513 415.807L425.769 395.958H447.199" stroke="#333333" stroke-width="0.906313" stroke-linecap="round" stroke-linejoin="round"/>
    <path d="M451.078 395.958H455.723" stroke="#333333" stroke-width="0.906313" stroke-linecap="round" stroke-linejoin="round"/>
    <path d="M455.723 395.958H501.066" stroke="#333333" stroke-width="0.906313" stroke-linecap="round" stroke-linejoin="round"/>
    <path d="M501.066 395.958H522.491L514.28 415.807" stroke="#333333" stroke-width="0.906313" stroke-linecap="round" stroke-linejoin="round"/>
    <path d="M509.096 428.243L502.915 443.21" stroke="#333333" stroke-width="0.906313" stroke-linecap="round" stroke-linejoin="round"/>
    <path d="M461.274 432.99C464.591 432.99 467.274 430.296 467.274 426.976C467.274 423.651 464.591 420.962 461.274 420.962C457.961 420.962 455.274 423.651 455.274 426.976C455.274 430.296 457.961 432.99 461.274 432.99Z" fill="#78C7E0" stroke="#333333" stroke-width="0.906313" stroke-linecap="round" stroke-linejoin="round"/>
    <path d="M365.767 466.724H496.779V457.994H374.477C369.65 457.994 365.767 461.928 365.767 466.724Z" fill="#48466D" stroke="#333333" stroke-width="0.906313" stroke-linecap="round" stroke-linejoin="round"/>
    <defs>
    <linearGradient id="paint0_linear_1_1384" x1="505.506" y1="92.8266" x2="505.506" y2="170.861" gradientUnits="userSpaceOnUse">
    <stop offset="0.361091" stop-color="#23C4FF"/>
    <stop offset="1" stop-color="#157699"/>
    </linearGradient>
    </defs>
</svg>